<svg xmlns="http://www.w3.org/2000/svg" viewBox="0 0 240 180">
  <rect width="240" height="180" rx="24" fill="#FFF7E8"/>
  <circle cx="120" cy="90" r="54" fill="#F7B84B"/>
  <circle cx="120" cy="90" r="38" fill="#D97706"/>
  <path d="M78 72c8-20 34-32 58-24 18 6 30 20 30 38 0 24-20 42-44 42-18 0-36-12-44-30" fill="#7C2D12"/>
  <path d="M70 110c8 10 18 16 30 18 10 2 20 2 30 0 14-2 26-10 34-20" stroke="#FDE68A" stroke-width="6" stroke-linecap="round"/>
  <path d="M96 54c6-8 16-14 28-14 10 0 18 4 24 10" stroke="#F59E0B" stroke-width="6" stroke-linecap="round"/>
</svg>